PathFileType	4	(x/y/z)	S01_M20_T04.trc
DataRate	CameraRate	NumFrames	NumMarkers	Units	OrigDataRate	OrigDataStartFrame	OrigNumFrames
240	240	7	51	mm	240	271	720
Frame#	Time	Sternum			R.Acromium			L.Acromium			Top.Head			R.ASIS			L.ASIS			R.PSIS			L.PSIS			R.Great.Tro			L.Great.Tro			R.Iliac.Crest			L.Iliac.Crest			V.Sacral			R.Thigh.Upper.Post			R.Thigh.Lower.Ant			R.Thigh.Lower.Post			R.Thigh.Upper.Ant			R.Knee.Lat			R.Knee.Med			R.Shank.Upper.Post			R.Shank.Lower.Ant			R.Shank.Lower.Post			R.Shank.Upper.Ant			R.Ankle.Lat			R.Ankle.Med			R.Heel.Upper			R.Heel.Med			R.Heel.Lat			R.Toe.Lat			R.Toe.Med			R.Toe.Tip			L.Thigh.Upper.Post			L.Thigh.Lower.Ant			L.Thigh.Lower.Post			L.Thigh.Upper.Ant			L.Knee.Lat			L.Knee.Med			L.Shank.Upper.Post			L.Shank.Lower.Ant			L.Shank.Lower.Post			L.Shank.Upper.Ant			L.Ankle.Lat			L.Ankle.Med			L.Heel.Upper			L.Heel.Med			L.Heel.Lat			L.Toe.Lat			L.Toe.Med			L.Toe.Tip			Cervical.Spine			Back			
		X1	Y1	Z1	X2	Y2	Z2	X3	Y3	Z3	X4	Y4	Z4	X5	Y5	Z5	X6	Y6	Z6	X7	Y7	Z7	X8	Y8	Z8	X9	Y9	Z9	X10	Y10	Z10	X11	Y11	Z11	X12	Y12	Z12	X13	Y13	Z13	X14	Y14	Z14	X15	Y15	Z15	X16	Y16	Z16	X17	Y17	Z17	X18	Y18	Z18	X19	Y19	Z19	X20	Y20	Z20	X21	Y21	Z21	X22	Y22	Z22	X23	Y23	Z23	X24	Y24	Z24	X25	Y25	Z25	X26	Y26	Z26	X27	Y27	Z27	X28	Y28	Z28	X29	Y29	Z29	X30	Y30	Z30	X31	Y31	Z31	X32	Y32	Z32	X33	Y33	Z33	X34	Y34	Z34	X35	Y35	Z35	X36	Y36	Z36	X37	Y37	Z37	X38	Y38	Z38	X39	Y39	Z39	X40	Y40	Z40	X41	Y41	Z41	X42	Y42	Z42	X43	Y43	Z43	X44	Y44	Z44	X45	Y45	Z45	X46	Y46	Z46	X47	Y47	Z47	X48	Y48	Z48	X49	Y49	Z49	X50	Y50	Z50	X51	Y51	Z51	

271	1.125	383.04	1219.8	407.72	192.8	1450.7	531.77	356.83	1507.1	254.85	260.79	1793.7	433.27	277.67	967.6	489.88	395.49	971.68	251.11	105.36	1022	303.33	149.58	1020	208.7	178.57	921.19	529.15	334.82	927.42	128.86	163.85	1055.9	519.77	334.37	1067.9	142.76	115.74	984.23	247.68	280.17	622.41	518.74	373.85	583.08	534.44	324.19	545.08	504.86	332.35	662.49	549.99	364.3	492.27	510.91	439.22	519.4	392.33	296.99	346.7	466.26	361.27	262.11	433.38	291	282.11	436.55	361.12	327.3	468.17	275.55	103.15	343.07	352.34	113.5	283.01	249.36	79.291	247.47	277.98	48.754	233.08	236.13	48.16	281.51	356.81	37.364	442.16	455.88	39.151	357.92	474.22	49.766	441.32	356.83	646.4	131.57	453.85	594.8	138.85	383.46	560.89	150.43	418.74	682.38	123.44	439.43	496.31	140.15	449.19	481.85	293.03	320.19	459.75	102.77	283.53	354.83	108.27	259.32	412.6	91.67	345.11	401.08	114.69	76.576	295.97	82.248	89.714	271.21	179.48	7.1939	335.47	126.02	-11.036	311.4	156.04	-7.7425	316.42	94.139	91.611	137.31	53.478	104.16	112	174.68	151.48	69.098	123.01	194.76	1543.9	355.21	114.84	1240.1	281.96
272	1.1292	386.8	1221.3	409.86	195.17	1452.5	531.58	362.69	1508.9	256.56	265.17	1795.3	434.38	280	968.74	490.53	400.92	973.16	253.38	110.21	1023.9	301.8	155.77	1022	207.8	180.27	922.36	528.35	342.05	929.55	130.15	166.28	1057.5	519.06	341.55	1069.6	144.33	121.33	986.19	246.21	280.48	623.09	518.23	373.84	583.18	534.58	324.18	545.54	504.55	332.69	662.83	549.93	363.99	492.5	510.94	439.77	519.32	392.85	296.85	346.91	466.14	361.15	262.23	433.6	290.87	282.29	436.48	360.96	327.44	468.35	275.6	103.3	343.19	352.46	113.63	283.14	249.39	79.518	247.57	278.01	48.98	233.13	236.17	48.373	281.56	356.81	37.329	442.19	455.89	39.167	357.96	474.26	49.658	441.36	366.95	649.07	133.12	464.42	598.48	141.46	394.29	563.88	152.48	428.56	685.64	125.41	451.12	500	142.91	459.46	485.86	295.8	332.75	462.05	104.34	297.67	356.58	109.17	272.76	414.01	92.514	358.45	403.72	116.32	91.983	294.71	81.061	104.58	269.67	178.28	21.33	332.55	124.3	3.2912	307.93	154	7.1565	313.37	92.157	110.54	136.61	51.614	122.28	110.89	172.85	170.98	69.281	121.44	199.7	1545.6	355.06	120.33	1241.9	280.81
273	1.1333	390.52	1223	411.97	197.55	1454.5	531.35	368.54	1510.7	258.27	269.53	1797.1	435.51	282.3	969.98	491.12	406.31	974.73	255.64	115.06	1026	300.26	161.97	1024.1	206.91	181.97	923.64	527.48	349.24	931.8	131.46	168.72	1059.3	518.3	348.7	1071.4	145.91	126.91	988.27	244.73	280.7	623.88	517.62	373.73	583.37	534.64	324.07	546.09	504.16	332.94	663.25	549.8	363.57	492.82	510.89	440.2	519.33	393.28	296.62	347.21	465.95	360.96	262.43	433.8	290.66	282.55	436.36	360.7	327.68	468.49	275.63	103.48	343.32	352.56	113.8	283.28	249.43	79.782	247.69	278.03	49.245	233.19	236.2	48.619	281.63	356.8	37.288	442.21	455.88	39.187	358	474.31	49.553	441.39	376.94	651.88	134.72	474.82	602.3	144.13	404.95	567.03	154.56	438.24	689.04	127.45	462.64	503.85	145.72	469.51	489.99	298.6	345.18	464.38	105.92	311.79	358.35	110.14	286.13	415.4	93.375	371.71	406.43	118	107.49	293.27	79.908	119.57	268.01	177.13	35.583	329.42	122.58	17.776	304.25	151.96	22.19	310.1	90.192	129.67	135.82	49.896	140.64	109.73	171.16	190.72	69.455	120.04	204.64	1547.4	354.91	125.82	1243.8	279.66
274	1.1375	394.22	1224.7	414.04	199.96	1456.5	531.08	374.37	1512.7	259.98	273.85	1798.9	436.65	284.56	971.31	491.65	411.67	976.4	257.88	119.92	1028.2	298.71	168.16	1026.3	206.02	183.65	925.04	526.56	356.38	934.17	132.77	171.18	1061.1	517.47	355.81	1073.3	147.5	132.5	990.48	243.24	280.85	624.77	516.93	373.52	583.66	534.62	323.86	546.75	503.68	333.09	663.78	549.59	363.04	493.24	510.77	440.52	519.43	393.62	296.29	347.59	465.7	360.68	262.71	433.98	290.38	282.88	436.19	360.34	328	468.59	275.64	103.68	343.46	352.66	114	283.46	249.46	80.093	247.83	278.04	49.557	233.27	236.23	48.905	281.73	356.79	37.239	442.24	455.87	39.212	358.03	474.36	49.45	441.43	386.81	654.84	136.35	485.06	606.24	146.86	415.44	570.31	156.67	447.8	692.57	129.54	473.99	507.82	148.57	479.33	494.23	301.42	357.48	466.71	107.5	325.88	360.12	111.16	299.44	416.77	94.255	384.88	409.19	119.72	123.1	291.69	78.799	134.7	266.23	176.04	49.956	326.08	120.88	32.422	300.37	149.96	37.362	306.62	88.255	149	134.96	48.328	159.25	108.55	169.62	210.7	69.64	118.83	209.58	1549.3	354.77	131.31	1245.8	278.52
275	1.1417	397.89	1226.5	416.07	202.39	1458.6	530.78	380.18	1514.8	261.7	278.15	1800.8	437.8	286.79	972.74	492.1	416.98	978.18	260.1	124.78	1030.6	297.15	174.34	1028.6	205.15	185.33	926.54	525.57	363.47	936.67	134.09	173.65	1063.1	516.6	362.89	1075.3	149.09	138.09	992.81	241.75	280.91	625.76	516.14	373.21	584.04	534.52	323.55	547.51	503.11	333.16	664.39	549.31	362.41	493.76	510.57	440.74	519.62	393.9	295.87	348.06	465.4	360.33	263.07	434.14	290.01	283.31	435.97	359.89	328.42	468.67	275.64	103.92	343.63	352.75	114.24	283.66	249.5	80.458	247.99	278.05	49.924	233.36	236.24	49.24	281.85	356.78	37.181	442.27	455.86	39.242	358.06	474.42	49.348	441.46	396.53	657.94	138.03	495.14	610.31	149.65	425.77	573.73	158.81	457.22	696.22	131.68	485.16	511.92	151.46	488.92	498.56	304.24	369.64	469.06	109.09	339.95	361.92	112.24	312.68	418.11	95.156	397.96	411.99	121.49	138.8	289.96	77.744	149.95	264.34	175	64.453	322.55	119.2	47.233	296.3	147.98	52.674	302.94	86.359	168.51	134.05	46.915	178.09	107.35	168.23	230.89	69.857	117.8	214.53	1551.4	354.64	136.82	1248	277.37
276	1.1458	401.53	1228.4	418.06	204.84	1460.8	530.45	385.98	1516.9	263.44	282.43	1802.8	438.97	288.99	974.25	492.49	422.27	980.06	262.29	129.65	1033	295.59	180.52	1031.1	204.28	186.99	928.15	524.52	370.52	939.28	135.42	176.12	1065.2	515.66	369.93	1077.4	150.68	143.68	995.27	240.25	280.9	626.86	515.27	372.81	584.52	534.34	323.16	548.36	502.47	333.13	665.11	548.95	361.67	494.4	510.31	440.85	519.91	394.1	295.36	348.62	465.04	359.9	263.53	434.29	289.58	283.82	435.71	359.34	328.94	468.71	275.64	104.2	343.82	352.84	114.52	283.89	249.55	80.889	248.18	278.06	50.354	233.47	236.25	49.633	281.99	356.78	37.115	442.29	455.83	39.275	358.09	474.48	49.247	441.49	406.12	661.16	139.75	505.04	614.48	152.48	435.93	577.26	160.96	466.5	699.99	133.89	496.15	516.13	154.38	498.28	502.96	307.08	381.66	471.4	110.68	353.98	363.73	113.39	325.86	419.43	96.082	410.93	414.84	123.31	154.6	288.12	76.752	165.32	262.36	174.04	79.075	318.84	117.55	62.209	292.05	146.06	68.129	299.09	84.513	188.21	133.12	45.664	197.15	106.16	167	251.29	70.125	116.95	219.49	1553.5	354.52	142.33	1250.2	276.23
277	1.15	405.15	1230.4	420.02	207.32	1463.1	530.08	391.76	1519.2	265.19	286.68	1804.9	440.16	291.15	975.85	492.81	427.52	982.05	264.47	134.53	1035.6	294.01	186.69	1033.6	203.42	188.63	929.86	523.4	377.52	942.02	136.76	178.59	1067.4	514.67	376.93	1079.6	152.27	149.27	997.84	238.75	280.82	628.07	514.3	372.32	585.1	534.1	322.68	549.32	501.74	333.03	665.93	548.53	360.84	495.14	509.98	440.89	520.31	394.25	294.76	349.29	464.62	359.39	264.09	434.44	289.08	284.43	435.4	358.71	329.56	468.74	275.63	104.53	344.03	352.93	114.86	284.16	249.61	81.393	248.4	278.08	50.858	233.6	236.27	50.093	282.17	356.77	37.039	442.32	455.8	39.312	358.12	474.56	49.143	441.51	415.57	664.5	141.5	514.77	618.74	155.36	445.92	580.9	163.13	475.65	703.85	136.14	506.95	520.43	157.33	507.41	507.43	309.92	393.55	473.73	112.28	367.97	365.56	114.6	338.96	420.72	97.036	423.8	417.73	125.17	170.5	286.16	75.832	180.81	260.31	173.16	93.825	314.97	115.95	77.35	287.64	144.18	83.728	295.08	82.726	208.07	132.19	44.58	216.42	104.99	165.94	271.87	70.462	116.31	224.45	1555.7	354.42	147.85	1252.5	275.1
